<?xml version="1.0" standalone="no"?>
<!DOCTYPE svg PUBLIC "-//W3C//DTD SVG 20010904//EN"
 "http://www.w3.org/TR/2001/REC-SVG-20010904/DTD/svg10.dtd">
<svg version="1.0" xmlns="http://www.w3.org/2000/svg"
 width="840.000000pt" height="840.000000pt" viewBox="0 0 840.000000 840.000000"
 preserveAspectRatio="xMidYMid meet">

<g transform="translate(0.000000,840.000000) scale(0.100000,-0.100000)"
fill="#000000" stroke="none">
<path d="M3634 5953 c-35 -7 -97 -70 -91 -93 3 -11 1 -18 -4 -14 -5 3 -9 -147
-9 -366 0 -222 4 -369 9 -366 5 4 11 1 13 -6 2 -6 12 -9 21 -5 15 6 17 37 19
334 1 233 4 287 7 188 4 -77 10 -146 15 -154 6 -10 6 -12 -2 -7 -7 4 -12 1
-12 -9 0 -10 5 -13 13 -9 9 6 9 5 0 -7 -7 -9 -12 -67 -12 -167 -1 -101 -6
-160 -14 -173 -8 -13 -9 -22 -2 -27 18 -13 16 -41 -4 -51 -15 -8 -20 -7 -25 6
-4 9 -4 18 -1 21 3 3 5 0 5 -6 0 -7 5 -12 10 -12 6 0 10 9 10 21 0 11 -4 17
-10 14 -6 -4 -7 1 -3 11 5 14 3 16 -11 11 -10 -4 -15 -3 -11 3 3 6 1 10 -5 10
-7 0 -9 -11 -5 -32 4 -18 8 -42 9 -53 1 -11 8 -21 14 -21 7 -1 15 -3 20 -4 4
-1 11 -2 15 -1 5 1 6 -3 2 -8 -3 -6 -13 -7 -23 -4 -15 6 -15 5 -3 -11 8 -9 20
-15 28 -12 8 3 12 2 9 -3 -10 -16 49 -32 111 -30 35 1 65 0 68 -3 3 -3 7 -58
8 -121 1 -67 7 -121 13 -127 15 -15 68 5 58 22 -4 7 -3 8 4 4 15 -9 65 41 56
56 -4 7 -3 8 5 4 6 -4 9 -13 5 -19 -3 -7 5 0 19 14 13 15 33 30 44 33 10 3 36
22 57 40 20 19 41 36 45 38 5 2 24 15 43 31 l34 27 277 3 c263 2 277 3 292 22
9 11 13 14 10 6 -5 -9 0 -8 18 3 55 37 56 46 56 489 1 293 -2 406 -10 401 -7
-4 -9 0 -5 13 9 29 -30 75 -58 68 -16 -5 -18 -4 -6 4 36 25 -51 29 -554 30
-405 1 -522 -1 -534 -11 -12 -10 -14 -10 -8 0 4 6 6 11 4 11 -2 -1 -12 -4 -24
-6z m1010 -23 c-7 -7 -182 -9 -490 -7 l-479 2 483 3 c359 1 482 5 482 14 0 6
3 8 7 5 4 -4 2 -12 -3 -17z m113 -67 c0 -9 -4 -10 -14 -2 -7 6 -13 12 -13 14
0 1 6 2 13 2 8 0 14 -6 14 -14z m-1181 -71 c-17 -16 -18 -16 -5 5 7 12 15 20
18 17 3 -2 -3 -12 -13 -22z m313 -196 c5 -12 11 -32 14 -46 6 -23 3 -25 -26
-23 -18 1 -35 2 -38 2 -4 1 -10 12 -13 25 -11 44 -86 40 -86 -6 0 -15 5 -19
20 -15 11 3 23 0 27 -5 4 -7 1 -8 -7 -3 -8 5 -11 4 -6 -3 3 -6 21 -14 38 -18
76 -16 101 -47 102 -125 1 -31 -2 -55 -5 -53 -6 4 -22 -33 -20 -48 0 -3 -6 -9
-15 -12 -10 -4 -13 -2 -8 6 4 6 3 9 -2 6 -5 -3 -26 -13 -47 -23 -27 -13 -35
-21 -27 -30 7 -8 6 -12 -4 -12 -17 0 -14 26 5 38 10 6 3 9 -23 9 -23 0 -46 8
-65 24 -15 12 -34 21 -40 19 -7 -3 -13 0 -13 7 0 6 5 8 11 4 18 -11 0 38 -25
66 -11 13 -14 19 -4 12 9 -8 19 -9 22 -4 3 5 19 12 35 14 25 4 30 0 40 -28 17
-47 56 -56 94 -22 31 27 14 54 -49 74 -99 31 -135 99 -94 178 10 22 18 42 16
45 -2 3 19 7 48 9 28 1 53 7 54 12 5 14 82 -48 91 -74z m185 72 c-3 -4 -11 -5
-19 -1 -21 7 -19 12 4 10 11 0 18 -5 15 -9z m101 3 c3 -5 0 -13 -6 -17 -7 -4
-9 -3 -5 4 3 5 0 13 -6 15 -9 4 -10 6 -1 6 6 1 14 -3 18 -8z m220 -3 c5 4 5 1
1 -6 -6 -10 -11 -10 -22 -1 -8 6 -14 14 -14 16 0 3 6 0 13 -6 8 -6 18 -7 22
-3z m103 2 c-2 -5 0 -10 5 -10 4 0 21 0 38 0 21 0 28 4 23 13 -4 7 0 6 12 -3
43 -34 86 -51 65 -27 -8 10 -7 14 4 14 8 0 12 -4 9 -8 -2 -4 4 -15 13 -25 17
-17 17 -18 0 -11 -13 5 -16 3 -10 -6 8 -13 10 -18 12 -43 0 -8 6 -12 11 -9 6
4 7 11 4 17 -5 7 -2 8 5 4 9 -6 9 -12 -3 -25 -9 -10 -14 -20 -12 -22 2 -2 -15
-5 -39 -6 -37 -1 -42 1 -38 18 3 11 0 19 -6 19 -7 0 -9 5 -6 10 9 14 -9 12
-24 -2 -10 -11 -11 -10 -6 4 5 13 2 15 -14 11 -30 -8 -36 -35 -11 -55 12 -10
26 -16 30 -13 5 3 11 1 15 -5 3 -5 17 -7 30 -4 12 3 26 1 29 -5 5 -7 0 -9 -11
-5 -17 5 -17 5 0 -6 9 -6 22 -8 27 -5 6 4 9 3 8 -2 -5 -19 15 -54 27 -49 8 3
19 -3 27 -12 11 -15 11 -16 -3 -4 -14 10 -18 10 -23 -4 -4 -10 -1 -21 6 -26 8
-4 8 -8 2 -8 -6 0 -11 -6 -12 -12 -1 -7 -3 -26 -4 -43 -2 -16 -7 -31 -11 -32
-4 -2 -20 -9 -37 -18 -16 -8 -38 -15 -50 -15 -12 0 -19 -4 -16 -9 3 -5 -2 -15
-12 -22 -15 -12 -16 -12 -5 2 14 17 8 29 -13 29 -8 0 -11 -8 -9 -20 2 -12 0
-18 -6 -15 -5 4 -7 10 -4 15 3 4 -14 22 -37 39 -23 17 -43 41 -45 53 -2 13 -8
24 -13 26 -14 5 -1 29 27 47 14 10 22 12 19 6 -4 -6 -1 -11 8 -11 8 0 18 -9
21 -21 5 -13 12 -18 22 -14 13 4 13 3 4 -9 -9 -11 -8 -15 5 -20 39 -15 84 9
84 44 0 20 -60 52 -101 54 -15 0 -27 5 -26 11 1 5 -8 10 -21 9 -15 0 -19 3
-13 9 7 7 7 15 -1 24 -13 16 -12 151 0 138 5 -5 37 25 38 37 3 15 4 18 9 18 3
0 4 -4 3 -10z m182 -10 c6 -11 8 -20 6 -20 -3 0 -10 9 -16 20 -6 11 -8 20 -6
20 3 0 10 -9 16 -20z m-790 2 c0 -5 -7 -9 -15 -9 -8 0 -12 4 -9 9 3 4 9 8 15
8 5 0 9 -4 9 -8z m210 -11 c11 -1 22 -30 39 -103 13 -57 28 -107 34 -113 6 -7
7 0 3 18 -5 22 -4 27 6 21 7 -4 10 -4 6 0 -3 4 2 37 13 73 10 36 18 68 17 72
-3 28 4 32 60 29 31 -2 56 -6 55 -10 -2 -5 -3 -89 -3 -188 l0 -180 -35 0 -35
0 -1 118 -1 117 -14 -60 c-8 -33 -13 -68 -10 -78 2 -9 1 -15 -4 -12 -4 3 -11
-16 -15 -41 -6 -45 -7 -45 -43 -42 -31 2 -38 7 -40 28 -2 14 -7 30 -11 35 -4
6 -8 24 -9 40 -1 17 -9 53 -16 80 l-14 50 0 -95 c-1 -153 3 -140 -37 -140
l-35 0 -1 148 c0 81 -1 167 -2 192 l-2 45 40 -1 c22 -1 47 -2 55 -3z m95 -10
c3 -5 2 -12 -3 -15 -5 -3 -9 1 -9 9 0 17 3 19 12 6z m-48 -28 c1 -22 -1 -24
-8 -10 -6 9 -7 22 -4 27 9 14 10 13 12 -17z m226 13 c4 -10 1 -13 -8 -9 -8 3
-12 9 -9 14 7 12 11 11 17 -5z m-183 -20 c0 -3 -4 -8 -10 -11 -5 -3 -10 -1
-10 4 0 6 5 11 10 11 6 0 10 -2 10 -4z m168 -172 l-3 -159 -5 167 c-3 92 -2
164 3 159 4 -4 6 -79 5 -167z m44 131 c-3 -21 0 -35 7 -35 6 0 11 -5 11 -11 0
-5 -4 -8 -9 -5 -4 3 -8 -17 -8 -44 0 -27 3 -48 7 -45 4 2 7 -2 7 -10 0 -8 -4
-12 -9 -9 -4 3 -8 -22 -7 -56 1 -33 -1 -64 -5 -67 -3 -3 -6 66 -6 155 0 89 4
162 8 162 4 0 6 -16 4 -35z m-756 -8 c1 -9 -2 -15 -7 -11 -5 3 -7 9 -4 14 3 5
-3 11 -12 14 -15 4 -15 5 1 3 11 -1 20 -10 22 -20z m3 -44 c-6 -7 -15 -10 -20
-7 -13 8 -3 21 15 21 12 0 13 -4 5 -14z m245 -15 c-3 -4 -11 -5 -19 -1 -21 7
-19 12 4 10 11 0 18 -5 15 -9z m541 -17 c3 -5 2 -12 -3 -15 -5 -3 -9 1 -9 9 0
17 3 19 12 6z m-765 -7 c0 -8 -19 -13 -24 -6 -3 5 1 9 9 9 8 0 15 -2 15 -3z
m3 -44 c3 -11 1 -18 -4 -14 -5 3 -9 12 -9 20 0 20 7 17 13 -6z m77 -6 c0 -8
-19 -13 -24 -6 -3 5 1 9 9 9 8 0 15 -2 15 -3z m-126 -70 c3 -8 2 -12 -4 -9 -6
3 -10 10 -10 16 0 14 7 11 14 -7z m160 0 c3 -8 2 -12 -4 -9 -6 3 -10 10 -10
16 0 14 7 11 14 -7z m46 12 c0 -2 -7 -7 -16 -10 -8 -3 -12 -2 -9 4 6 10 25 14
25 6z m740 0 c0 -11 -19 -15 -25 -6 -3 5 1 10 9 10 9 0 16 -2 16 -4z m-857
-118 c11 -19 13 -27 4 -20 -10 9 -17 8 -27 -1 -12 -10 -12 -9 -1 6 11 14 11
20 1 32 -7 8 -9 15 -4 15 5 0 17 -14 27 -32z m157 -5 c0 -3 -6 -3 -12 0 -7 2
-22 -3 -33 -12 -20 -16 -20 -16 -2 6 16 18 47 22 47 6z m290 5 c0 -12 -18 -19
-25 -8 -4 6 -11 7 -17 4 -6 -4 -8 -3 -5 2 7 11 47 13 47 2z m-404 -13 c-1 -8
-5 -17 -8 -21 -5 -4 -4 16 1 34 3 9 9 -1 7 -13z m311 8 c-4 -3 -1 -13 6 -21
11 -13 9 -14 -10 -1 -16 9 -19 16 -10 21 15 9 23 10 14 1z m111 -15 c-15 -22
-44 -32 -53 -18 -3 5 4 7 15 5 12 -2 24 3 30 16 6 10 13 19 17 19 3 0 -1 -10
-9 -22z m87 3 c-4 -3 -12 -6 -18 -6 -7 -1 -11 -7 -9 -14 1 -7 -2 -9 -8 -6 -8
5 -6 13 6 26 9 10 21 16 26 13 5 -3 6 -9 3 -13z m-380 0 c-3 -6 3 -14 12 -20
10 -6 13 -11 7 -11 -15 0 -36 25 -27 33 10 10 15 8 8 -2z m445 -6 c0 -2 -6 -8
-13 -14 -10 -8 -14 -7 -14 2 0 8 6 14 14 14 7 0 13 -1 13 -2z m310 -5 c0 -5
-2 -10 -4 -10 -2 0 -12 -3 -22 -7 -16 -6 -17 -5 -4 10 17 19 30 22 30 7z m135
-190 c-3 -5 -12 -10 -18 -10 -7 0 -6 4 3 10 19 12 23 12 15 0z m-1111 -88 c3
-5 -1 -9 -9 -9 -8 0 -12 4 -9 9 3 4 7 8 9 8 2 0 6 -4 9 -8z m79 1 c-13 -2 -33
-2 -45 0 -13 2 -3 4 22 4 25 0 35 -2 23 -4z m800 0 c-57 -2 -149 -2 -205 0
-57 1 -11 3 102 3 113 0 159 -2 103 -3z m-383 -6 c0 -2 -9 -12 -21 -23 -15
-14 -20 -15 -17 -4 2 8 10 18 18 22 19 8 20 9 20 5z m-316 -226 c-9 -9 -34 -9
-34 -1 0 5 9 8 20 7 10 -1 17 -3 14 -6z"/>
<path d="M4692 3413 l3 -438 50 0 50 0 3 438 2 437 -55 0 -55 0 2 -437z"/>
<path d="M5300 3688 l0 -162 -28 27 c-34 33 -79 47 -147 47 -145 -1 -237 -123
-237 -315 0 -120 23 -186 87 -252 58 -59 111 -79 184 -68 47 7 115 37 126 55
12 20 25 9 25 -21 0 -30 1 -30 48 -27 l47 3 3 438 2 437 -55 0 -55 0 0 -162z
m-60 -195 c56 -34 60 -46 60 -209 0 -169 -5 -185 -74 -218 -74 -35 -154 -13
-198 55 -65 100 -46 303 34 362 49 37 126 41 178 10z"/>
<path d="M1315 3810 c-51 -13 -80 -27 -114 -56 -40 -33 -81 -115 -81 -161 0
-33 0 -33 50 -33 46 0 50 2 50 23 0 40 43 108 80 128 46 25 125 25 167 -1 69
-42 86 -140 38 -228 -14 -27 -105 -136 -201 -243 -162 -180 -174 -197 -172
-229 l3 -35 273 -3 272 -2 0 45 0 45 -211 0 -211 0 103 111 c163 175 207 229
242 299 58 118 39 239 -49 299 -62 43 -165 60 -239 41z"/>
<path d="M1915 3811 c-110 -31 -184 -108 -185 -193 0 -27 2 -28 49 -28 48 0
49 1 55 35 9 44 57 92 102 101 56 10 123 -1 149 -26 48 -45 58 -139 20 -196
-24 -37 -90 -64 -157 -64 l-58 0 0 -39 0 -38 71 -6 c123 -10 179 -59 179 -155
0 -98 -55 -152 -154 -152 -85 0 -138 35 -156 102 -11 38 -11 38 -62 38 l-51 0
6 -36 c15 -92 89 -163 194 -184 129 -27 254 24 305 125 24 47 29 156 8 195
-18 36 -60 79 -93 96 l-28 15 40 29 c128 93 101 304 -47 366 -44 18 -145 26
-187 15z"/>
<path d="M708 3753 l-148 -56 0 -44 c0 -23 4 -43 9 -43 5 0 52 16 105 35 l96
35 2 -353 3 -352 53 -3 52 -3 0 420 c0 331 -3 421 -12 420 -7 0 -79 -26 -160
-56z"/>
<path d="M2485 3576 c-62 -29 -107 -76 -137 -141 -19 -42 -23 -67 -23 -155 0
-125 22 -187 87 -246 58 -52 101 -68 188 -68 64 -1 84 4 135 29 32 17 68 43
79 58 l20 28 -29 23 -30 24 -33 -30 c-44 -38 -72 -48 -133 -48 -57 0 -81 10
-126 53 -31 29 -43 54 -57 120 l-6 27 210 0 210 0 0 63 c0 176 -95 287 -244
287 -43 0 -76 -7 -111 -24z m163 -70 c37 -19 67 -55 81 -95 24 -73 29 -71
-145 -71 l-157 0 6 34 c17 105 132 175 215 132z"/>
<path d="M3881 3583 c-54 -19 -116 -80 -145 -142 -18 -39 -21 -64 -21 -161 0
-105 2 -119 27 -166 64 -121 192 -177 320 -140 82 23 131 64 167 138 90 185
15 428 -148 476 -52 16 -147 14 -200 -5z m179 -85 c66 -33 100 -105 100 -207
0 -92 -13 -141 -47 -181 -78 -93 -218 -77 -273 31 -46 89 -35 244 22 313 56
68 122 82 198 44z"/>
<path d="M4525 3588 c-11 -6 -32 -22 -47 -36 l-28 -26 0 32 c0 32 0 32 -50 32
l-50 0 0 -310 0 -310 50 0 50 0 0 229 0 228 25 27 c31 33 64 46 121 46 l44 0
0 50 0 50 -47 0 c-27 0 -57 -6 -68 -12z"/>
<path d="M5895 3576 c-102 -47 -155 -146 -155 -290 0 -143 43 -234 134 -286
104 -60 229 -46 313 33 40 39 78 111 66 129 -2 5 -23 8 -47 8 -39 0 -43 -2
-55 -35 -27 -76 -140 -110 -221 -66 -72 38 -107 174 -80 305 28 137 173 192
264 101 19 -19 37 -48 41 -64 6 -29 9 -31 56 -31 l49 0 -7 33 c-8 44 -36 97
-65 124 -69 65 -201 83 -293 39z"/>
<path d="M6490 3591 c-79 -24 -126 -69 -167 -156 -23 -52 -27 -72 -27 -150 1
-118 26 -185 92 -248 58 -53 106 -71 192 -71 186 0 299 163 269 384 -17 115
-94 214 -187 240 -42 11 -135 12 -172 1z m137 -82 c83 -31 128 -123 121 -248
-8 -134 -70 -211 -170 -211 -121 0 -185 93 -176 255 3 67 9 91 32 129 42 71
121 102 193 75z"/>
<path d="M7115 3581 c-22 -10 -46 -25 -54 -34 -20 -25 -31 -21 -31 13 0 29 -1
30 -50 30 l-50 0 0 -311 0 -310 53 3 52 3 5 237 5 238 26 25 c42 42 107 51
179 24 51 -19 55 -36 60 -289 l5 -235 50 0 50 0 5 225 c5 245 9 259 66 296 33
22 125 22 158 0 48 -31 51 -46 54 -293 l4 -233 28 0 c32 0 57 21 66 54 3 13 4
117 2 232 -3 201 -4 211 -28 254 -32 57 -92 90 -166 90 -79 0 -107 -9 -162
-50 l-51 -39 -16 26 c-39 59 -177 82 -260 44z"/>
<path d="M2860 3582 c0 -12 169 -593 176 -603 3 -5 22 -9 43 -9 l38 0 73 235
c41 129 75 233 78 231 2 -2 36 -107 76 -233 l73 -228 41 -3 41 -3 25 83 c14
46 52 178 86 293 33 116 63 218 66 228 5 16 0 18 -47 15 l-53 -3 -51 -205
c-28 -113 -55 -218 -59 -235 -7 -27 -10 -22 -36 60 -15 50 -49 156 -74 238
l-47 147 -42 0 -42 0 -69 -225 c-38 -124 -72 -225 -75 -225 -4 0 -19 48 -34
108 -15 59 -41 160 -58 225 l-32 117 -48 0 c-27 0 -49 -4 -49 -8z"/>
<path d="M5537 3072 c-37 -40 -11 -102 42 -102 41 0 64 22 64 60 0 55 -70 82
-106 42z"/>
</g>
</svg>
